<svg data-name="Layer 1" xmlns="http://www.w3.org/2000/svg" viewBox="0 0 250 250"><path d="M234.5 3.25l3.5-1.76c.27.16.56.3.84.45l-.84-.53c-1.2.59-2.35 1.25-3.5 1.84zM248.63 41.11A28.23 28.23 0 0 1 237.32 44a28.2 28.2 0 0 0 11.31-2.89zM220.48 42.1h.37a9.66 9.66 0 0 0 6.26-1.9 9.66 9.66 0 0 1-6.26 1.91zM215.82 24.3a2 2 0 0 1 2.42 2 2 2 0 0 0-2.42-2 14.08 14.08 0 0 1-.29-2.34 14.08 14.08 0 0 0 .29 2.34zM221.22 27.37zM219.62 22.78zM219.86 24c.09.36.21.71.33 1.06-.13-.36-.19-.71-.33-1.06zM220.22 25.17a16.5 16.5 0 0 0 1 2.14 16.55 16.55 0 0 1-1-2.14zM219.07 31.53a40.23 40.23 0 0 0 4.89 6 3.33 3.33 0 0 0 .45-.27 3.33 3.33 0 0 1-.45.27 40.23 40.23 0 0 1-4.89-6 24.48 24.48 0 0 1-1.92-3.35 24.48 24.48 0 0 0 1.92 3.35zM241.39 248.82a2.06 2.06 0 0 1 1 1.18 2 2 0 0 0-.32-.61 2 2 0 0 0-.68-.57zM19.95 239c3.33 0 6.25 2.73 7.93 4.56a28.34 28.34 0 0 1 4.24 6.33 28.71 28.71 0 0 0-4.24-6.38c-1.69-1.84-4.6-4.51-7.93-4.51zM246 67.93a6.67 6.67 0 0 0 3.73 5.32c.08 0 .25.06.25.1s-.17-.06-.25-.1a6.67 6.67 0 0 1-3.73-5.32zM25.08 64c3.28 4.63 2.55 10.34-2.17 16.89A11 11 0 0 1 19 84.56a5.41 5.41 0 0 1-2.23.56 5.39 5.39 0 0 0 2.23-.55A10.94 10.94 0 0 0 22.92 81c4.72-6.55 5.45-12.29 2.17-16.92-2.57-3.63-9.48-6-16-6C15.61 58 22.52 60.41 25.08 64zM37.88 0c-.25 1-.53.68-.84 1-.13-.33-.28 0-.42-1 .14 1 .29.75.42 1.09.31-.31.59-.09.84-1.09zM162.58 2.66a1.84 1.84 0 0 0-.74-.09 1.91 1.91 0 0 1 .74.1 8.6 8.6 0 0 0 9.6-2.67 8.6 8.6 0 0 1-9.6 2.66zM174.69 3.26a12.22 12.22 0 0 0 2-2.57c.11-.2.21-.7.31-.7-.1 0-.2.49-.31.69a12.34 12.34 0 0 1-2 2.58zM39 10.43a23.49 23.49 0 0 0-.7-5.23 23.54 23.54 0 0 1 .7 5.23zM159.93 4.74a2 2 0 0 0 1.34 1.77 2 2 0 0 1-1.34-1.77zM242 68.28a10.64 10.64 0 0 0 6 8.6 6.18 6.18 0 0 0 1.94.7 6.15 6.15 0 0 1-1.93-.7 10.64 10.64 0 0 1-6.01-8.6zM222.37 29.27a17.63 17.63 0 0 1 .01.01c8.2 12 15.24 12 24.62 7.78a45.33 45.33 0 0 0 0-.01c-9.38 4.18-16.43 4.24-24.63-7.78z" fill="none"/><path d="M239.9 229.1a4.09 4.09 0 0 0 2.46-2.35 3 3 0 0 0-.54-3.08 4.52 4.52 0 0 0-3.36-1.43 4.66 4.66 0 0 0-1 .1 3.08 3.08 0 0 0-2.16 1.77 4.38 4.38 0 0 0 0 3.79 2.63 2.63 0 0 0 1.13 1.17 3 3 0 0 0 .4.15 2 2 0 0 1 .79.18 4.71 4.71 0 0 0 2.28-.3zM217.14 28.18a7.12 7.12 0 0 0-2 5.36 5.07 5.07 0 0 0 3.49 4.38 8.07 8.07 0 0 0 2.11.18 7.44 7.44 0 0 0 3.17-.6 40.23 40.23 0 0 1-4.89-6 24.48 24.48 0 0 1-1.88-3.32zM19.95 239.47a6.86 6.86 0 0 0-3.64 1.08A281.47 281.47 0 0 1 0 249.76v.24h32.12a27.59 27.59 0 0 0-4.24-6.21c-1.69-1.79-4.6-4.32-7.93-4.32zM3 74.19c.7.15 1.43.31 2.16.53a10.31 10.31 0 0 1 3.56 1.72 14 14 0 0 1 3.45 4.65c.84 1.56 1.56 2.9 2.71 3.58a3.74 3.74 0 0 0 2 .46 5.39 5.39 0 0 0 2.12-.55A11 11 0 0 0 22.92 81c4.72-6.55 5.45-12.22 2.17-16.85-2.57-3.63-9.48-6-16-6a21.26 21.26 0 0 0-6.79 1A12.86 12.86 0 0 0 0 60.23v13.12a17.53 17.53 0 0 0 3 .84zM162.53 193.82c-4.52.33-10.24 2.54-11.52 7.7-.7 2.85.48 6 2.71 7.21a6.29 6.29 0 0 0 5.07.18c.45-.17.91-.38 1.39-.61a12.28 12.28 0 0 1 3.52-1.21 13.06 13.06 0 0 1 5.5.75c1.7.5 3.16.93 4.26.41 2.42-1.12 3.31-5.57 2.24-8.21-1.95-4.81-8.02-6.59-13.17-6.22zM66.47 31.5a14.54 14.54 0 0 0 11.93.25 14.3 14.3 0 0 0 8.54-8.31 11.25 11.25 0 0 0-2.11-11.59A15.92 15.92 0 0 0 70 7.21a11.6 11.6 0 0 0-8.11 6.59A15.15 15.15 0 0 0 62 26.92a10.39 10.39 0 0 0 4.47 4.58zM60.21 158.69a6.86 6.86 0 0 0-.78 0 8.47 8.47 0 0 0-6.65 3.48 5.94 5.94 0 0 0-.81 5.29 8 8 0 0 0 4.67 5.08 5.23 5.23 0 0 0 3.2.21 7.63 7.63 0 0 0 4.71-4.12 7.5 7.5 0 0 0 .42-6.23 5.67 5.67 0 0 0-4.76-3.71zM239.27 20.18a3.08 3.08 0 0 0-2.15 1.82 4.37 4.37 0 0 0 0 3.79 2.65 2.65 0 0 0 1.13 1.17 4.23 4.23 0 0 0 3.41 0 4.09 4.09 0 0 0 2.46-2.35 3 3 0 0 0-.54-3.08 4.61 4.61 0 0 0-4.31-1.35zM139.77 124a8.27 8.27 0 0 0-1.54-8.51 11.84 11.84 0 0 0-11-3.44 8.52 8.52 0 0 0-6 4.84 11.25 11.25 0 0 0 .08 9.75 7.57 7.57 0 0 0 3.24 3.34 10.79 10.79 0 0 0 8.85.17 10.61 10.61 0 0 0 6.37-6.15zM246 67.54v.4a6.67 6.67 0 0 0 3.74 5.32c.08 0 .25.06.25.1V60.25a7.19 7.19 0 0 0-3.99 7.29zM37 1c.31-.31.59 0 .84-1h-1.22c.14 1 .29.66.38 1zM143.68 61a2 2 0 0 0 1.22.08 3.35 3.35 0 0 0 2-1.8 3.23 3.23 0 0 0 .21-2.68 2.24 2.24 0 0 0-1.9-1.48 3.68 3.68 0 0 0-3.21 1.55 2.38 2.38 0 0 0-.31 2.13 3.47 3.47 0 0 0 1.99 2.2zM8.76 30.77l19.12-10.94c2.23-1.27 4.54-2.64 6-4.6C36 12.25 35.09 6 32.21 0H0v35.62c2.77-1.42 5.7-3.1 8.76-4.85zm2-25.39a7.11 7.11 0 0 1 4.94-4A8.61 8.61 0 0 1 23.81 4a6.93 6.93 0 0 1 1.32 7 8.07 8.07 0 0 1-4.78 4.75 8.88 8.88 0 0 1-3.22.61 7.5 7.5 0 0 1-3.53-.84 6.65 6.65 0 0 1-2.81-2.89 8.34 8.34 0 0 1-.06-7.25z" fill="#d4e8b1"/><path d="M248.63 40.91C245 42.54 241.18 44 237.32 44a17.43 17.43 0 0 1-10.2-3.61c-1.47 1.23-3.77 1.76-6.5 1.81H220a15.13 15.13 0 0 1-2.57-.32 9 9 0 0 1-6.34-7.88 11.51 11.51 0 0 1 3.73-9.32c.27-.26.63-.63 1-.63a6.62 6.62 0 0 1-.28-2.19 11.32 11.32 0 0 1 .13-2.21c.73-4.73 4.34-9 10.17-12 2.81-1.45 5.62-2.86 8.42-4.28l.25-.12c1.14-.6 2.29-1.25 3.49-1.85-.66-.4-1.27-.4-1.83-1.4H177c-.1 0-.2.5-.31.7a12.22 12.22 0 0 1-2 2.57 13.54 13.54 0 0 1-9.42 3.93 12.21 12.21 0 0 1-4-.67A2 2 0 0 1 160 3.95a2.05 2.05 0 0 1 1.8-1.38 1.84 1.84 0 0 1 .74.09A8.6 8.6 0 0 0 172.18 0H42.43a10.88 10.88 0 0 1-3.63 4.85 2.5 2.5 0 0 1-.48.35 23.49 23.49 0 0 1 .7 5.23 11.9 11.9 0 0 1-2 7.25c-1.93 2.65-4.74 4.25-7.22 5.67L10.75 34.26A159.37 159.37 0 0 1 0 40.08v15.69l1-.39c9.25-3.16 22.78 0 27.31 6.42 4.31 6.09 3.55 13.53-2.19 21.5a14.76 14.76 0 0 1-5.38 4.87 9.34 9.34 0 0 1-4.08 1 7.69 7.69 0 0 1-3.9-1C10.69 86.88 9.58 84.81 8.6 83a10.69 10.69 0 0 0-2.39-3.4 10.26 10.26 0 0 0-4.11-1.5c-.69-.15-1.39-.31-2.1-.51v98.62a2 2 0 0 1 .43-.21l11-4.3a2 2 0 0 1 1.46 3.72l-11 4.38a2.11 2.11 0 0 1-.72.22 2.21 2.21 0 0 1-1.17-.56v65.77c4.79-2.57 9.56-5.24 14.21-8.09 4.35-2.67 9.24-2.14 13.8 1.36a9.7 9.7 0 0 1 6.32-1.32 11.86 11.86 0 0 1 3.14.58 9.06 9.06 0 0 1 5.78 8.36 10.22 10.22 0 0 1-.73 3.88h129.84a7.92 7.92 0 0 0 .86-1.21 9.27 9.27 0 0 0-1.89-11.19 2 2 0 1 1 2.62-3 13.29 13.29 0 0 1 3.14 15.4h58.81a13.28 13.28 0 0 1-4.72-9 14.08 14.08 0 0 1 2.34-9.14 6.71 6.71 0 0 1-1.73-2.15 8.34 8.34 0 0 1-.07-7.33 7.11 7.11 0 0 1 4.94-4 8.61 8.61 0 0 1 8.15 2.61 6.93 6.93 0 0 1 1.31 7 8.07 8.07 0 0 1-4.78 4.75 8.88 8.88 0 0 1-3.22.61h-.73a9.51 9.51 0 0 0-2.24 7.23c.23 2.49 1.5 5.93 6.22 8.2a2 2 0 0 1 .71.56c2.63-1.35 4.9-2.73 7.9-4.14v-65.77c0-.22-.54-.51-.68-.87a1.68 1.68 0 0 1 .68-2.33V77.58a6.18 6.18 0 0 1-1.94-.7 10.64 10.64 0 0 1-6-8.6v-.58c-.23-5.51 3-9.71 8-11.92V40.09c-.04.21-.96.62-1.41.82zm-10.1 50a2 2 0 0 1 2.2 3.34l-9.86 6.5a2 2 0 0 1-2.2-3.34zm-2.93 33.21a2 2 0 1 1 3.3-2.26 8.43 8.43 0 0 1-1 10.42 8.32 8.32 0 0 1-5.88 2.36 8.1 8.1 0 0 1-4.52-1.34 2 2 0 0 1 2.23-3.32 4.21 4.21 0 0 0 5.83-5.87zm-30.43-67.18c2.71-.23 4.76 1.28 6.57 2.61a9.82 9.82 0 0 0 3.37 1.9 9.64 9.64 0 0 0 2.54-.17c.59-.05 1.21-.28 1.85-.28a10.46 10.46 0 0 1 7.66 3.43c2.88 3.24 3 8.74.4 12.68-2.5 3.72-6.92 5.83-12 5.83a21.43 21.43 0 0 1-5.87-.85c-6.35-1.81-12.87-6.87-13.13-14.08-.14-4.77 3.57-10.65 8.61-11.07zm4.57 64.95v1.85a10.31 10.31 0 0 1-3.87 7.42 9.38 9.38 0 0 1-5.66 1.79 11.19 11.19 0 0 1-6.93-2.42c-4.8-3.83-6.14-11-3.43-18.21 2.32-6.18 7.89-12.27 15.1-11.95 4.77.22 10.32 4.39 10.34 9.45 0 2.72-1.66 4.64-3.14 6.34a9.82 9.82 0 0 0-2.17 3.21 9 9 0 0 0-.24 2.52zm-19.88-108.3a2 2 0 0 1 2.47 1.41l6.06 21.47a2 2 0 1 1-3.85 1.09l-6.06-21.47a2 2 0 0 1 1.38-2.5zM166.77 60a4.21 4.21 0 0 0 5.83-5.87 2 2 0 1 1 3.3-2.26 8.43 8.43 0 0 1-1 10.42 8.32 8.32 0 0 1-5.88 2.36 8.1 8.1 0 0 1-4.52-1.34 2 2 0 1 1 2.27-3.31zm2.92 77.77a13.31 13.31 0 0 1-11.41 6.41 12.21 12.21 0 0 1-4-.66 2 2 0 0 1 1.31-3.78 8.91 8.91 0 0 0 8.74-15.16 2 2 0 1 1 2.62-3 13.26 13.26 0 0 1 2.73 16.21zm3.31 28.4a2 2 0 1 1 3.92.81l-2.4 11.56a2 2 0 1 1-3.92-.81zM129 135a13.39 13.39 0 0 1-6.29-1.49 11.49 11.49 0 0 1-4.93-5.07 15.12 15.12 0 0 1-.12-13.28 12.44 12.44 0 0 1 8.74-7 15.66 15.66 0 0 1 14.83 4.72 12.27 12.27 0 0 1 2.31 12.48 14.59 14.59 0 0 1-8.66 8.55A16.27 16.27 0 0 1 129 135zm-.77 45.46l-11 4.3a2 2 0 1 1-1.46-3.72l11-4.3a2 2 0 1 1 1.46 3.72zm-12.18-84.24a2 2 0 0 1-.93-2.67l9.08-18.78a2 2 0 0 1 3.6 1.74l-9.08 18.78a2 2 0 0 1-2.67.93zm22.66-41.9a7.68 7.68 0 0 1 7-3.15 6.23 6.23 0 0 1 5.13 3.9 7.22 7.22 0 0 1-.32 6 7.33 7.33 0 0 1-4.65 3.93 6 6 0 0 1-1.45.18 6.07 6.07 0 0 1-2.18-.41 7.45 7.45 0 0 1-4.43-4.81 6.39 6.39 0 0 1 .91-5.64zm2.93 43.93a2 2 0 0 1-1.46-3.73l11-4.3a2 2 0 0 1 1.46 3.73zm21.12-76a2 2 0 0 1 1.46 3.75l-11 4.3a2 2 0 0 1-1.46-3.73zM137.67 5.79a2 2 0 0 1 2 2 4.21 4.21 0 0 0 8.09 1.72 2 2 0 1 1 3.69 1.55 8.48 8.48 0 0 1-7.69 5 7.6 7.6 0 0 1-1.59-.17 8.43 8.43 0 0 1-6.5-8.19 2 2 0 0 1 2-1.91zm-31.78 9a10.13 10.13 0 0 1 11.3-1.28 10 10 0 0 1 5 10.23 17.32 17.32 0 0 1-1.07 3.49 15.12 15.12 0 0 0-.83 2.55A6.38 6.38 0 0 0 132 34.34a2 2 0 0 1 3.41 2.1 10.68 10.68 0 0 1-9 4.9 9.91 9.91 0 0 1-3.59-.66A10.65 10.65 0 0 1 116.34 29a18.41 18.41 0 0 1 1-3.24 14.12 14.12 0 0 0 .85-2.69 5.85 5.85 0 0 0-9.67-5.32 2 2 0 1 1-2.66-3zM98.26 41.4c5-1.19 10.47 1.05 12.66 5.22a11.21 11.21 0 0 1 .35 9.08c-.25.66-.54 1.27-.83 1.86a10.13 10.13 0 0 0-1 2.69 11 11 0 0 0 .66 4.33c.66 2.36 1.42 5 .16 7.68-1.69 3.54-5.94 5.32-10 5.32a11.93 11.93 0 0 1-4.57-.86c-7.27-3-9.92-11.68-9.33-18.89.71-8.44 5.38-14.88 11.9-16.43zm-7.45 65.27a15.24 15.24 0 0 0-2.48-1 17.36 17.36 0 0 1-3.33-1.44A9.85 9.85 0 0 1 88.62 86a2 2 0 1 1 .57 4A5.85 5.85 0 0 0 87 100.8a14.14 14.14 0 0 0 2.61 1.08 18.42 18.42 0 0 1 3.14 1.3 10.38 10.38 0 0 1-5.2 19.43 9.59 9.59 0 0 1-1.42-.1 2 2 0 0 1 .59-4 6.38 6.38 0 0 0 4.07-11.88zm-25.1 23.44a7.62 7.62 0 0 1-1.58-.17 8.44 8.44 0 0 1-6.5-8.19 2 2 0 0 1 4 .08 4.21 4.21 0 0 0 8.09 1.72 2 2 0 1 1 3.69 1.55 8.48 8.48 0 0 1-7.7 5.01zm2.42 40.27a11.66 11.66 0 0 1-7.31 6.21 9.09 9.09 0 0 1-2.23.28 9.44 9.44 0 0 1-3.38-.63 11.89 11.89 0 0 1-7.07-7.68 9.85 9.85 0 0 1 1.4-8.77 12.28 12.28 0 0 1 11.12-5.06 9.72 9.72 0 0 1 8 6.1 11.48 11.48 0 0 1-.52 9.55zm2-30.44a2 2 0 0 1 2.83 0l10.42 10.42a2 2 0 1 1-2.83 2.83l-10.41-10.42a2 2 0 0 1 0-2.83zM58.32 12.07a15.52 15.52 0 0 1 10.9-8.77 19.65 19.65 0 0 1 18.62 5.91 15.3 15.3 0 0 1 2.88 15.56 18.28 18.28 0 0 1-10.86 10.71 20.46 20.46 0 0 1-7.4 1.42 16.73 16.73 0 0 1-7.87-1.9 14.31 14.31 0 0 1-6.12-6.3 19.22 19.22 0 0 1-.15-16.63zm-.65 36.72a2 2 0 0 1 2 2 4.21 4.21 0 0 0 8.09 1.72 2 2 0 1 1 3.64 1.59 8.48 8.48 0 0 1-7.69 5 7.6 7.6 0 0 1-1.59-.17 8.43 8.43 0 0 1-6.5-8.19 2 2 0 0 1 2.05-1.95zm-7.35 25a8.59 8.59 0 0 1 7.44 4.61 16.48 16.48 0 0 1 1.07 2.6 14.13 14.13 0 0 0 .75 1.87c1.05 2 3.27 3.11 4.59 2.85s2.07-1.86 1.75-3.58a2 2 0 0 1 3.93-.73c.73 3.92-1.42 7.54-4.9 8.23a6.2 6.2 0 0 1-1.22.12 9.18 9.18 0 0 1-7.7-5 17.4 17.4 0 0 1-1-2.4 13.29 13.29 0 0 0-.81-2 4.66 4.66 0 0 0-3.76-2.55 2.15 2.15 0 0 0-1.95 2.14 2 2 0 1 1-4-.32 6.12 6.12 0 0 1 5.81-5.83zM46 94.66a7.59 7.59 0 0 1 6.24 4.76 8.88 8.88 0 0 1-.4 7.4 9 9 0 0 1-5.66 4.79 7.18 7.18 0 0 1-1.75.22 7.38 7.38 0 0 1-2.65-.5 9.17 9.17 0 0 1-5.46-5.93 7.78 7.78 0 0 1 1.1-6.84 9.47 9.47 0 0 1 8.58-3.9zM28 39.9a2 2 0 1 1 2.26-3.3L40 43.26a2 2 0 1 1-2.26 3.3zm3.8 100.23l11-4.3a2 2 0 1 1 1.46 3.72l-11 4.3a2 2 0 0 1-1.46-3.72zM6.34 118.79a13.26 13.26 0 0 1 15.33-6 13.26 13.26 0 0 1 8.74 13.93 2 2 0 0 1-2 1.74h-.26a2 2 0 0 1-1.72-2.24 9.27 9.27 0 0 0-6-9.61 9.27 9.27 0 0 0-10.58 4.11 2 2 0 1 1-3.49-2zm.27 35.67a2 2 0 0 1 1.64-3.65l22.26 10a2 2 0 1 1-1.64 3.65zm16.09 66.32a2 2 0 0 1-2.81-.3l-7.42-9.18a2 2 0 0 1 3.11-2.51L23 218a2 2 0 0 1-.29 2.79zM52.24 211a2 2 0 0 1-1.5-3.32 5.85 5.85 0 0 0-5.4-9.62 14.1 14.1 0 0 0-2.69.88 18.35 18.35 0 0 1-3.24 1.06 10.38 10.38 0 0 1-7.56-19 2 2 0 0 1 2.15 3.38A6.38 6.38 0 0 0 38.63 196a15.21 15.21 0 0 0 2.54-.85 17.3 17.3 0 0 1 3.48-1.1 9.85 9.85 0 0 1 9.1 16.19 2 2 0 0 1-1.51.76zm25 8.74a2 2 0 0 1-2.75.68 4.11 4.11 0 0 0-6 4.92 10.7 10.7 0 0 0 1 1.85 14.7 14.7 0 0 1 1.29 2.4 8.74 8.74 0 0 1-3.43 10.36 8.36 8.36 0 0 1-4.35 1.2 8.65 8.65 0 0 1-6.39-2.74 2 2 0 1 1 3-2.69 4.52 4.52 0 0 0 7.51-4.72 11.46 11.46 0 0 0-1-1.76 14.08 14.08 0 0 1-1.36-2.59A8.11 8.11 0 0 1 76.6 217a2 2 0 0 1 .68 2.71zm25.54 11.74l-10.5 14.36a2 2 0 1 1-3.23-2.36l10.5-14.36a2 2 0 1 1 3.23 2.36zm-2.71-45.31a9.83 9.83 0 0 0-2.17 3.21 9 9 0 0 0-.2 2.53v1.85a10.31 10.31 0 0 1-3.87 7.42 9.38 9.38 0 0 1-5.66 1.79 11.19 11.19 0 0 1-6.93-2.42c-4.8-3.83-6.14-11-3.43-18.21 2.32-6.18 7.88-12.25 15.1-11.95 4.77.22 10.32 4.39 10.34 9.45.01 2.69-1.66 4.62-3.13 6.31zm1.88-23a8.65 8.65 0 0 1-6.39-2.74 2 2 0 1 1 3-2.69 4.52 4.52 0 0 0 7.56-4.69 11.46 11.46 0 0 0-1-1.76 14.08 14.08 0 0 1-1.36-2.59 8.11 8.11 0 0 1 11.84-9.7 2 2 0 1 1-2.06 3.43 4.11 4.11 0 0 0-6 4.92 10.7 10.7 0 0 0 1 1.85 14.7 14.7 0 0 1 1.29 2.4 8.74 8.74 0 0 1-3.43 10.36 8.36 8.36 0 0 1-4.4 1.19zm20.54 64a2 2 0 0 1-2.83.11l-12-11.12a2 2 0 1 1 2.72-2.93l12 11.12a2 2 0 0 1 .15 2.81zm11.54-18.43a2 2 0 1 1-3.66-1.61 4.21 4.21 0 0 0-6.81-4.69 2 2 0 1 1-2.81-2.85 8.21 8.21 0 0 1 13.27 9.16zm1.42-48.93a2.15 2.15 0 0 0-1.95 2.14 2 2 0 0 1-2.16 1.83 2 2 0 0 1-1.83-2.16 6.12 6.12 0 0 1 5.77-5.82 8.62 8.62 0 0 1 7.43 4.61 16.39 16.39 0 0 1 1.08 2.57 14.14 14.14 0 0 0 .75 1.87c1.05 2 3.26 3.12 4.59 2.85s2.07-1.86 1.75-3.58a2 2 0 1 1 3.93-.73c.73 3.92-1.42 7.54-4.9 8.23a6.2 6.2 0 0 1-1.22.12 9.18 9.18 0 0 1-7.7-5 17.52 17.52 0 0 1-1-2.4 13.09 13.09 0 0 0-.81-2 4.69 4.69 0 0 0-3.7-2.54zm20.36 80a9 9 0 0 1-5.66 4.79 7.21 7.21 0 0 1-1.75.22 7.37 7.37 0 0 1-2.65-.5 9.17 9.17 0 0 1-5.46-5.93 7.79 7.79 0 0 1 1.1-6.84 9.48 9.48 0 0 1 8.58-3.9 7.59 7.59 0 0 1 6.24 4.76 8.87 8.87 0 0 1-.36 7.4zm19.3-27.92c-2.47 1.14-4.91.43-7.07-.2a9.75 9.75 0 0 0-3.82-.63 9 9 0 0 0-2.38.87c-.54.25-1.1.51-1.7.74a11 11 0 0 1-3.81.69 9.61 9.61 0 0 1-4.55-1.1c-3.82-2.06-5.83-7.08-4.69-11.7 1.48-6 7.41-10.17 15.12-10.73 6.6-.48 14.45 2 17.17 8.72 1.83 4.45.36 11.21-4.23 13.34zm5.68-114.3a9.14 9.14 0 0 1-2.23.27 9.42 9.42 0 0 1-3.38-.64 11.88 11.88 0 0 1-7.07-7.68 9.85 9.85 0 0 1 1.4-8.77 12.29 12.29 0 0 1 11.12-5.06 9.72 9.72 0 0 1 8 6.1 11.48 11.48 0 0 1-.53 9.56 11.66 11.66 0 0 1-7.27 6.22zm28.69 143a10.7 10.7 0 0 1-9.94 7 9.52 9.52 0 0 1-1.42-.11 2 2 0 1 1 .59-4 6.39 6.39 0 0 0 4.07-11.88 15.14 15.14 0 0 0-2.48-1 17.3 17.3 0 0 1-3.36-1.43 9.85 9.85 0 0 1 3.68-18.17 2 2 0 1 1 .57 4 5.85 5.85 0 0 0-2.19 10.8 14 14 0 0 0 2.61 1.08 18.38 18.38 0 0 1 3.14 1.3 10.65 10.65 0 0 1 4.77 12.43zm-17.13-43.14a2 2 0 0 1 1.9-2.1l11.79-.58a2 2 0 1 1 .2 4l-11.79.58h-.1a2 2 0 0 1-1.96-1.89zm28.29-13.17a10.33 10.33 0 0 1-4.51 1.06 8.44 8.44 0 0 1-4.28-1.11c-2.33-1.37-3.57-3.67-4.67-5.71a12.26 12.26 0 0 0-2.78-3.94 11.79 11.79 0 0 0-4.76-1.74 21.39 21.39 0 0 1-4.53-1.36 11.77 11.77 0 0 1-6.68-9.53v-.64c-.28-6.52 3.3-11.38 10.08-13.7 10.39-3.55 25.56 0 30.63 7.17 4.81 6.8 4 15.12-2.48 24a16.47 16.47 0 0 1-5.98 5.52zm22.66 12.19a2 2 0 0 1 1.07 2.62 8.48 8.48 0 0 1-7.69 5 7.62 7.62 0 0 1-1.58-.17 8.43 8.43 0 0 1-6.5-8.19 2 2 0 0 1 4 .08 4.21 4.21 0 0 0 8.09 1.72 2 2 0 0 1 2.64-1.04z" fill="#d4e8b1"/><path d="M43.22 107.59a3.23 3.23 0 0 0 2 .14 5 5 0 0 0 3.05-2.7 4.9 4.9 0 0 0 .29-4.06 3.59 3.59 0 0 0-3-2.33h-.51a5.57 5.57 0 0 0-4.37 2.3 3.81 3.81 0 0 0-.5 3.36 5.22 5.22 0 0 0 3.04 3.29zM204.73 104.36h-.37c-5 0-9 4.65-10.8 9.37-1.59 4.24-2 10.36 2.18 13.68 2.29 1.83 5.67 2.08 7.68.56a6.27 6.27 0 0 0 2.29-4.53v-1.52a12.3 12.3 0 0 1 .37-3.7 13 13 0 0 1 3-4.68c1.16-1.33 2.16-2.49 2.16-3.7 0-2.68-3.67-5.35-6.51-5.48zM249.2 0q-.83.56-1.65 1.07c-3.85 2.36-7.69 3.86-11.49 5.79-2.8 1.42-5.6 2.94-8.4 4.38s-7.34 4.42-8 9a8.58 8.58 0 0 0 0 2.49 10.91 10.91 0 0 0 .24 1.19c.09.36.21.71.33 1.06v.12a16.55 16.55 0 0 0 1 2.14v.06l.45.79.12.21.58.9c8.2 12 15.25 12 24.63 7.79 1-.43 2-.91 3-1.42V0zm-1.29 25.93a8.08 8.08 0 0 1-4.78 4.75 8.88 8.88 0 0 1-3.22.61 7.5 7.5 0 0 1-3.53-.84 6.66 6.66 0 0 1-2.81-2.89 8.34 8.34 0 0 1-.07-7.33 7.11 7.11 0 0 1 4.94-4 8.61 8.61 0 0 1 8.15 2.61 6.94 6.94 0 0 1 1.33 7.09zM249.55 250h.45v-.22c0 .07-.31.15-.45.22zM97.25 73c3 1.25 8.07.27 9.39-2.49.61-1.29.15-3-.39-4.88a14.27 14.27 0 0 1-.77-6 13.46 13.46 0 0 1 1.36-3.82c.26-.54.51-1 .7-1.55a7.17 7.17 0 0 0-.16-5.79c-1.34-2.56-4.94-4-8.2-3.19-5.84 1.38-8.4 7.79-8.82 12.86-.47 5.78 1.48 12.62 6.89 14.86zM15.49 12.07a4.23 4.23 0 0 0 3.41 0 4.09 4.09 0 0 0 2.46-2.35 3 3 0 0 0-.54-3.09A4.62 4.62 0 0 0 16.5 5.3a3.08 3.08 0 0 0-2.16 1.77 4.37 4.37 0 0 0 0 3.79 2.64 2.64 0 0 0 1.15 1.21zM36.13 241.53a8.05 8.05 0 0 0-2.08-.36 8.11 8.11 0 0 0-3 .23 32.84 32.84 0 0 1 5.44 8.6H38a6.69 6.69 0 0 0 1.22-3.81 5.07 5.07 0 0 0-3.09-4.66zM149.55 231.63h-.51a5.57 5.57 0 0 0-4.37 2.3 3.8 3.8 0 0 0-.5 3.35 5.21 5.21 0 0 0 3.06 3.33 3.23 3.23 0 0 0 2 .14 5 5 0 0 0 3.05-2.7 4.9 4.9 0 0 0 .29-4.06 3.59 3.59 0 0 0-3.02-2.36zM199.8 151.43c-5.09 1.74-7.57 5-7.37 9.74v.47a7.82 7.82 0 0 0 4.37 6.24 18.14 18.14 0 0 0 3.71 1.08 14.91 14.91 0 0 1 6.37 2.49 15.62 15.62 0 0 1 3.84 5.19c.93 1.73 1.8 3.36 3.17 4.16a5.49 5.49 0 0 0 5-.1 12.66 12.66 0 0 0 4.5-4.18c5.42-7.52 6.24-14 2.46-19.4-4.01-5.71-17.42-8.64-26.05-5.69zM210.82 78.24c4.35 1.24 10.49 1.13 13.46-3.28 1.64-2.43 1.61-6-.07-7.87a6.4 6.4 0 0 0-4.66-2.09c-.48 0-1 .22-1.51.27a12.17 12.17 0 0 1-3.72 0 13 13 0 0 1-4.91-2.55c-1.35-1-2.52-1.81-3.67-1.81h-.19c-2.65.22-5 4.1-4.92 6.94.15 5.21 5.23 8.97 10.19 10.39zM92.73 174.36h-.37c-5 0-9 4.66-10.8 9.37-1.59 4.24-2 10.36 2.18 13.68 2.29 1.83 5.67 2.07 7.68.56a6.27 6.27 0 0 0 2.29-4.53v-1.52a12.3 12.3 0 0 1 .37-3.71 13 13 0 0 1 3-4.68c1.16-1.33 2.16-2.49 2.16-3.7 0-2.67-3.67-5.34-6.51-5.47zM180.21 79.69a6.87 6.87 0 0 0-.78 0 8.47 8.47 0 0 0-6.65 3.48 5.94 5.94 0 0 0-.81 5.29 8 8 0 0 0 4.67 5.08 5.21 5.21 0 0 0 3.2.21 7.63 7.63 0 0 0 4.71-4.12 7.5 7.5 0 0 0 .42-6.23 5.67 5.67 0 0 0-4.76-3.71z" fill="#d4e8b1"/><path d="M204.77 228.19a18.38 18.38 0 0 0-3.14-1.3 14 14 0 0 1-2.63-1.09 5.85 5.85 0 0 1 2.19-10.8 2 2 0 1 0-.57-4 9.85 9.85 0 0 0-3.62 18.23 17.3 17.3 0 0 0 3.36 1.43 15.14 15.14 0 0 1 2.48 1 6.39 6.39 0 0 1-4.07 11.88 2 2 0 1 0-.59 4 9.52 9.52 0 0 0 1.42.11 10.38 10.38 0 0 0 5.2-19.43zM240.71 197.55a4.21 4.21 0 0 1-8.09-1.72 2 2 0 0 0-4-.08 8.43 8.43 0 0 0 6.5 8.19 7.62 7.62 0 0 0 1.58.17 8.48 8.48 0 0 0 7.69-5 2 2 0 0 0-3.69-1.55zM173.94 234.57a2 2 0 1 0-2.62 3 9.27 9.27 0 0 1 1.89 11.19 7.92 7.92 0 0 1-.86 1.21h4.73a13.29 13.29 0 0 0-3.14-15.4zM162.25 189.83c-7.71.55-13.64 4.76-15.12 10.73-1.14 4.61.88 9.64 4.69 11.7a9.61 9.61 0 0 0 4.55 1.1 11 11 0 0 0 3.81-.69c.6-.22 1.16-.49 1.7-.74a9 9 0 0 1 2.38-.87 9.75 9.75 0 0 1 3.82.63c2.16.63 4.6 1.34 7.07.2 4.59-2.13 6.06-8.92 4.26-13.34-2.71-6.68-10.57-9.2-17.16-8.72zm11.22 18.43c-1.1.51-2.57.08-4.26-.41a13.06 13.06 0 0 0-5.5-.75 12.28 12.28 0 0 0-3.52 1.21c-.49.23-.95.44-1.39.61a6.29 6.29 0 0 1-5.07-.18c-2.22-1.2-3.41-4.37-2.71-7.21 1.28-5.16 7-7.37 11.52-7.7 5.14-.37 11.21 1.42 13.17 6.24 1.07 2.62.17 7.07-2.24 8.19zM242.42 250h7.13c.14-.07.45-.15.45-.22v-4.53c-3 1.41-5.27 2.78-7.9 4.14a2 2 0 0 1 .32.61zM229.15 154.82c-5.07-7.17-20.24-10.72-30.63-7.17-6.77 2.31-10.35 7.18-10.08 13.7v.64a11.77 11.77 0 0 0 6.68 9.53 21.39 21.39 0 0 0 4.53 1.36 11.79 11.79 0 0 1 4.76 1.74 12.26 12.26 0 0 1 2.78 3.94c1.09 2 2.34 4.34 4.67 5.71a8.44 8.44 0 0 0 4.28 1.11 10.33 10.33 0 0 0 4.51-1.06 16.47 16.47 0 0 0 6-5.44c6.45-8.95 7.35-17.26 2.5-24.06zm-5.72 21.71a12.66 12.66 0 0 1-4.5 4.18 5.49 5.49 0 0 1-5 .1c-1.36-.8-2.24-2.43-3.17-4.16a15.62 15.62 0 0 0-3.84-5.19 14.91 14.91 0 0 0-6.37-2.49 18.14 18.14 0 0 1-3.71-1.08 7.82 7.82 0 0 1-4.37-6.24v-.47c-.2-4.72 2.28-8 7.38-9.74 8.63-2.95 22 0 26.08 5.7 3.74 5.34 2.91 11.86-2.51 19.38zM235.68 229.6a2 2 0 0 1 1.21-.38 3 3 0 0 1-.4-.15 2.63 2.63 0 0 1-1.12-1.17 4.38 4.38 0 0 1 0-3.79 3.08 3.08 0 0 1 2.16-1.77 4.66 4.66 0 0 1 1-.1 4.52 4.52 0 0 1 3.36 1.43 3 3 0 0 1 .54 3.08 4.09 4.09 0 0 1-2.46 2.35 4.71 4.71 0 0 1-2.21.3 2 2 0 0 1 .37 3.43 5 5 0 0 0-.64.58h.73a8.88 8.88 0 0 0 3.22-.61 8.07 8.07 0 0 0 4.78-4.75 6.93 6.93 0 0 0-1.31-7 8.61 8.61 0 0 0-8.15-2.61 7.11 7.11 0 0 0-4.94 4 8.34 8.34 0 0 0 .07 7.33 6.71 6.71 0 0 0 1.73 2.15 9.64 9.64 0 0 1 2.06-2.32z" fill="#dff5b2"/><path d="M241.39 248.82c-4.72-2.27-6-5.71-6.22-8.2a9.51 9.51 0 0 1 2.24-7.23 5 5 0 0 1 .64-.58 2 2 0 0 0-1.16-3.6 2 2 0 0 0-1.21.38 9.64 9.64 0 0 0-2.16 2.26 14.08 14.08 0 0 0-2.34 9.14 13.28 13.28 0 0 0 4.72 9h6.52a2.06 2.06 0 0 0-1-1.18zM249.32 178.56c.14.36.68.65.68.87v-3.2a1.68 1.68 0 0 0-.68 2.33zM172.15 180.09a2 2 0 0 0 2.36-1.55l2.4-11.56a2 2 0 1 0-3.92-.81l-2.4 11.56a2 2 0 0 0 1.56 2.36zM194.48 199.36l11.79-.58a2 2 0 1 0-.2-4l-11.79.58a2 2 0 0 0 .1 4zM150 227.66a9.48 9.48 0 0 0-8.58 3.9 7.79 7.79 0 0 0-1.1 6.84 9.17 9.17 0 0 0 5.46 5.93 7.37 7.37 0 0 0 2.65.5 7.21 7.21 0 0 0 1.75-.22 9 9 0 0 0 5.66-4.79 8.87 8.87 0 0 0 .4-7.4 7.59 7.59 0 0 0-6.24-4.76zm2.27 10.34a5 5 0 0 1-3.05 2.7 3.23 3.23 0 0 1-2-.14 5.21 5.21 0 0 1-3.06-3.33 3.8 3.8 0 0 1 .5-3.35 5.57 5.57 0 0 1 4.38-2.3h.51a3.59 3.59 0 0 1 3 2.33 4.9 4.9 0 0 1-.28 4.09zM54.92 199a10 10 0 0 0-10.27-4.88 17.3 17.3 0 0 0-3.48 1.1 15.21 15.21 0 0 1-2.54.85A6.38 6.38 0 0 1 34 184.38a2 2 0 0 0-2.15-3.38 10.38 10.38 0 0 0 7.56 19 18.35 18.35 0 0 0 3.23-1.05 14.1 14.1 0 0 1 2.69-.87 5.85 5.85 0 0 1 5.4 9.62 2 2 0 0 0 3 2.63A10 10 0 0 0 54.92 199zM76.6 217a8.11 8.11 0 0 0-11.8 9.71 14.08 14.08 0 0 0 1.36 2.59 11.46 11.46 0 0 1 1 1.76 4.52 4.52 0 0 1-7.56 4.69 2 2 0 1 0-3 2.69 8.65 8.65 0 0 0 6.4 2.71 8.36 8.36 0 0 0 4.42-1.23 8.74 8.74 0 0 0 3.43-10.36 14.7 14.7 0 0 0-1.29-2.4 10.7 10.7 0 0 1-1-1.85 4.11 4.11 0 0 1 6-4.92A2 2 0 1 0 76.6 217zM92.91 170.37c-7.21-.31-12.77 5.77-15.1 11.95-2.72 7.23-1.37 14.38 3.43 18.21a11.19 11.19 0 0 0 6.93 2.42 9.38 9.38 0 0 0 5.66-1.79 10.31 10.31 0 0 0 3.87-7.42v-1.85a9 9 0 0 1 .2-2.53 9.83 9.83 0 0 1 2.17-3.21c1.47-1.7 3.14-3.62 3.14-6.34.03-5.05-5.53-9.23-10.3-9.44zm4.18 13.16a13 13 0 0 0-3 4.68 12.3 12.3 0 0 0-.37 3.71v1.52a6.27 6.27 0 0 1-2.3 4.56c-2 1.52-5.39 1.27-7.68-.56-4.16-3.32-3.77-9.45-2.18-13.68 1.77-4.71 5.78-9.37 10.8-9.37h.37c2.84.13 6.51 2.8 6.52 5.46.01 1.15-1 2.34-2.15 3.68zM30 242a2 2 0 0 1-2.72-2.94 6.5 6.5 0 0 1 .75-.59c-4.56-3.5-9.45-4-13.8-1.36A257.68 257.68 0 0 1 0 245.23v4.53c5.48-2.9 11-6.18 16.29-9.45a7.29 7.29 0 0 1 3.66-1.31c3.33 0 6.25 2.73 7.93 4.56a29.09 29.09 0 0 1 4.24 6.44h4.42a32.84 32.84 0 0 0-5.44-8.6 2.93 2.93 0 0 0-1.1.6z" fill="#dff5b2"/><path d="M37.47 237.76a11.86 11.86 0 0 0-3.14-.58A9.7 9.7 0 0 0 28 238.5a6.5 6.5 0 0 0-.75.59A2 2 0 0 0 30 242a2.93 2.93 0 0 1 1.12-.62 8.11 8.11 0 0 1 3-.23 8.05 8.05 0 0 1 2.08.36 5.07 5.07 0 0 1 3.11 4.66A6.69 6.69 0 0 1 38 250h4.5a10.22 10.22 0 0 0 .73-3.88 9.06 9.06 0 0 0-5.76-8.36zM29.69 164.65a2 2 0 0 0 .82-3.83l-22.26-10a2 2 0 0 0-1.64 3.65l22.26 10a2 2 0 0 0 .82.18zM1.88 179.78l11-4.34a2 2 0 0 0-1.46-3.76L.43 176a1.87 1.87 0 0 0-.41.23v3.22a.38.38 0 0 0 0 .11 2.07 2.07 0 0 0 1.15.46 2.11 2.11 0 0 0 .71-.24zM15.58 208.79a2 2 0 0 0-3.11 2.51l7.42 9.18A2 2 0 1 0 23 218zM102.39 228.66a2 2 0 0 0-2.79.43l-10.5 14.36a2 2 0 1 0 3.23 2.36l10.5-14.36a2 2 0 0 0-.44-2.79zM60.67 154.71a12.28 12.28 0 0 0-11.12 5.06 9.85 9.85 0 0 0-1.4 8.77 11.89 11.89 0 0 0 7.07 7.68 9.44 9.44 0 0 0 3.38.63 9.09 9.09 0 0 0 2.23-.28 11.66 11.66 0 0 0 7.31-6.21 11.48 11.48 0 0 0 .53-9.56 9.72 9.72 0 0 0-8-6.09zm3.89 13.88a7.63 7.63 0 0 1-4.71 4.12 5.23 5.23 0 0 1-3.2-.21 8 8 0 0 1-4.65-5.09 5.94 5.94 0 0 1 .81-5.29 8.47 8.47 0 0 1 6.65-3.48 6.86 6.86 0 0 1 .78 0 5.67 5.67 0 0 1 4.76 3.73 7.5 7.5 0 0 1-.44 6.22zM164 60.57a2 2 0 0 0 .54 2.78 8.1 8.1 0 0 0 4.52 1.34 8.32 8.32 0 0 0 5.88-2.36 8.43 8.43 0 0 0 1-10.42 2 2 0 1 0-3.3 2.26 4.21 4.21 0 0 1-5.87 5.83 2 2 0 0 0-2.77.57zM162.58 2.67a1.91 1.91 0 0 0-.74-.1A2.05 2.05 0 0 0 160 3.95a2 2 0 0 0 1.24 2.57 12.21 12.21 0 0 0 4 .67 13.54 13.54 0 0 0 9.42-3.93 12.34 12.34 0 0 0 2-2.57c.11-.2.21-.69.31-.69h-4.81a8.6 8.6 0 0 1-9.58 2.67zM209.73 82.09a21.43 21.43 0 0 0 5.87.85c5.09 0 9.5-2.11 12-5.83 2.65-3.94 2.48-9.44-.4-12.68a10.46 10.46 0 0 0-7.65-3.43c-.64 0-1.26.23-1.85.28a9.64 9.64 0 0 1-2.54.17 9.82 9.82 0 0 1-3.37-1.9c-1.81-1.33-3.86-2.85-6.57-2.61-5 .43-8.75 6.3-8.58 11.07.21 7.2 6.74 12.26 13.09 14.08zm-4.22-21.16h.19c1.15 0 2.33.82 3.67 1.81a13 13 0 0 0 4.91 2.55 12.17 12.17 0 0 0 3.72 0c.53 0 1-.27 1.51-.27a6.4 6.4 0 0 1 4.67 2.08c1.68 1.89 1.71 5.44.07 7.88-3 4.41-9.11 4.52-13.46 3.28-5-1.42-10-5.18-10.24-10.38-.06-2.88 2.3-6.73 4.96-6.96zM222.38 29.28l-.59-.91-.12-.21c-.15-.26-.31-.52-.45-.79v-.06a16.5 16.5 0 0 1-1-2.14v-.12c-.12-.35-.24-.7-.33-1.06a10.91 10.91 0 0 1-.24-1.19 8.58 8.58 0 0 1 0-2.49c.71-4.63 5.35-7.65 8-9s5.6-3 8.4-4.38c3.8-1.93 7.64-3.44 11.49-5.79L249.2 0h-6.73c.1 1 .06 1-.14 1.4a2.09 2.09 0 0 1-1.8 1.23 2 2 0 0 1-.86-.2 8.76 8.76 0 0 1-.86-.49c-.28-.15-.57-.29-.84-.45l-3.47 1.76-.25.13-8.42 4.3c-5.83 3-9.44 7.27-10.17 12a12.09 12.09 0 0 0-.13 2.28 14.08 14.08 0 0 0 .29 2.34 2 2 0 0 1 1.78 3.41c-.16.15-.31.31-.45.47a24.48 24.48 0 0 0 1.92 3.35 40.23 40.23 0 0 0 4.89 6 3.33 3.33 0 0 0 .45-.27 2.36 2.36 0 0 0 .37-.32 2 2 0 0 1 3 2.69 6.49 6.49 0 0 1-.62.59v.2A17.43 17.43 0 0 0 237.32 44c3.86 0 7.65-1.46 11.31-3.09.45-.2 1.37-.61 1.37-.82v-4.46c-1 .52-2 1-3 1.43-9.38 4.17-16.42 4.24-24.62-7.78z" fill="#dff5b2"/><path d="M238.45 16.27a7.11 7.11 0 0 0-4.94 4 8.34 8.34 0 0 0 .07 7.33 6.66 6.66 0 0 0 2.81 2.89 7.5 7.5 0 0 0 3.53.84 8.88 8.88 0 0 0 3.22-.61 8.08 8.08 0 0 0 4.78-4.75 6.94 6.94 0 0 0-1.31-7 8.61 8.61 0 0 0-8.16-2.7zm5.69 8.33a4.09 4.09 0 0 1-2.46 2.35 4.23 4.23 0 0 1-3.41 0 2.65 2.65 0 0 1-1.13-1.17 4.37 4.37 0 0 1 0-3.79 3.08 3.08 0 0 1 2.16-1.77 4.61 4.61 0 0 1 4.32 1.33 3 3 0 0 1 .52 3.05zM242 67.7v.58a10.64 10.64 0 0 0 6 8.6 6.15 6.15 0 0 0 1.93.7v-4.23s-.18-.06-.25-.1a6.67 6.67 0 0 1-3.68-5.32v-.4a7.19 7.19 0 0 1 4-7.28v-4.47c-5 2.22-8.24 6.41-8 11.92zM238 1.41l.84.54a8.76 8.76 0 0 0 .86.49 2 2 0 0 0 .86.2 2.09 2.09 0 0 0 1.8-1.23c.2-.42.24-.4.14-1.4h-6.34c.53.99 1.14.99 1.84 1.4zM215.82 24.3a2 2 0 0 0-.95.48 11.16 11.16 0 0 0-3.67 9.17 9.06 9.06 0 0 0 6.47 7.84 11.23 11.23 0 0 0 2.81.31h.37a9.66 9.66 0 0 0 6.26-1.91 6.49 6.49 0 0 0 .62-.59 2 2 0 0 0-3-2.69 2.36 2.36 0 0 1-.37.32 3.33 3.33 0 0 1-.45.27 7.44 7.44 0 0 1-3.17.6 8.07 8.07 0 0 1-2.11-.18 5.07 5.07 0 0 1-3.49-4.38 7.12 7.12 0 0 1 2-5.36c.15-.16.29-.32.45-.47a2 2 0 0 0-1.78-3.41zM150.63 29.12a2 2 0 0 0 2.59 1.13l11-4.3a2 2 0 0 0-1.46-3.73l-11 4.3a2 2 0 0 0-1.13 2.6zM228.1 100.21a2 2 0 0 0 2.77.57l9.86-6.5a2 2 0 0 0-2.2-3.34l-9.86 6.5a2 2 0 0 0-.57 2.77zM194.54 37.52a2 2 0 1 0 3.85-1.09L192.33 15a2 2 0 1 0-3.85 1.09zM188.67 81.81a9.72 9.72 0 0 0-8-6.1 12.29 12.29 0 0 0-11.12 5.06 9.85 9.85 0 0 0-1.4 8.77 11.88 11.88 0 0 0 7.07 7.68 9.42 9.42 0 0 0 3.38.64 9.14 9.14 0 0 0 2.23-.27 11.66 11.66 0 0 0 7.31-6.21 11.48 11.48 0 0 0 .53-9.57zm-4.11 7.78a7.63 7.63 0 0 1-4.71 4.12 5.21 5.21 0 0 1-3.2-.21 8 8 0 0 1-4.65-5.09 5.94 5.94 0 0 1 .81-5.29 8.47 8.47 0 0 1 6.65-3.48 6.87 6.87 0 0 1 .78 0 5.67 5.67 0 0 1 4.76 3.73 7.5 7.5 0 0 1-.44 6.22zM46.38 81.77a2 2 0 0 0 2.16-1.83 2.15 2.15 0 0 1 1.95-2.14 4.66 4.66 0 0 1 3.76 2.55 13.29 13.29 0 0 1 .81 2 17.4 17.4 0 0 0 1 2.4 9.18 9.18 0 0 0 7.7 5 6.2 6.2 0 0 0 1.24-.11c3.48-.7 5.63-4.31 4.9-8.23a2 2 0 0 0-3.93.73c.32 1.71-.47 3.32-1.75 3.58s-3.54-.84-4.59-2.85a14.13 14.13 0 0 1-.8-1.87 16.48 16.48 0 0 0-1.08-2.57 8.59 8.59 0 0 0-7.44-4.61 6.12 6.12 0 0 0-5.77 5.82 2 2 0 0 0 1.84 2.13zM62.13 58.94a7.6 7.6 0 0 0 1.59.17 8.48 8.48 0 0 0 7.69-5 2 2 0 1 0-3.69-1.55 4.21 4.21 0 0 1-8.09-1.72 2 2 0 0 0-4-.08 8.43 8.43 0 0 0 6.5 8.18zM10.75 34.26l19.11-10.91c2.48-1.42 5.29-3 7.22-5.67a11.9 11.9 0 0 0 2-7.25 23.54 23.54 0 0 0-.71-5.22 2 2 0 0 1-2-3.41 9.07 9.07 0 0 0 .7-.71C36.91.75 36.76 1 36.62 0h-4.41c2.88 6 3.8 12.25 1.63 15.23-1.43 2-3.73 3.32-6 4.6L8.76 30.77C5.7 32.52 2.77 34.2 0 35.6v4.47c3.39-1.6 7-3.65 10.75-5.81z" fill="#dff5b2"/><path d="M13.6 15.6a7.5 7.5 0 0 0 3.53.84 8.88 8.88 0 0 0 3.22-.61 8.07 8.07 0 0 0 4.78-4.75 6.93 6.93 0 0 0-1.32-7 8.61 8.61 0 0 0-8.15-2.61 7.11 7.11 0 0 0-4.94 4 8.34 8.34 0 0 0 .07 7.32 6.65 6.65 0 0 0 2.81 2.81zm.73-8.49a3.08 3.08 0 0 1 2.16-1.77 4.62 4.62 0 0 1 4.32 1.33 3 3 0 0 1 .54 3.09 4.09 4.09 0 0 1-2.45 2.34 4.23 4.23 0 0 1-3.41 0 2.64 2.64 0 0 1-1.13-1.17 4.37 4.37 0 0 1-.03-3.82zM8.6 83c1 1.82 2.09 3.89 4.21 5.13a7.69 7.69 0 0 0 3.9 1 9.34 9.34 0 0 0 4.08-1 14.76 14.76 0 0 0 5.38-4.87c5.74-8 6.5-15.41 2.19-21.5C23.82 55.4 10.29 52.22 1 55.38c-.36.12-.69.25-1 .39v4.45a13 13 0 0 1 2.32-1.14A21.25 21.25 0 0 1 9.13 58c6.48 0 13.39 2.41 16 6 3.28 4.63 2.55 10.34-2.17 16.89A11 11 0 0 1 19 84.56a5.41 5.41 0 0 1-2.23.56 3.74 3.74 0 0 1-2-.46c-1.15-.67-1.87-2-2.71-3.58a14 14 0 0 0-3.45-4.65 10.31 10.31 0 0 0-3.56-1.72c-.73-.21-1.47-.37-2.16-.53A17.53 17.53 0 0 1 0 73.36v4.22c.7.2 1.4.36 2.09.51a10.22 10.22 0 0 1 4.1 1.49A10.69 10.69 0 0 1 8.6 83zM37 1.09a9.07 9.07 0 0 1-.7.71 2 2 0 0 0 2 3.41 2.5 2.5 0 0 0 .48-.35A10.88 10.88 0 0 0 42.43 0h-4.55c-.25 1-.53.78-.88 1.09zM38.83 46.91A2 2 0 0 0 40 43.26l-9.75-6.66A2 2 0 1 0 28 39.9l9.75 6.66a2 2 0 0 0 1.08.35zM64.59 35a16.73 16.73 0 0 0 7.86 1.86 20.46 20.46 0 0 0 7.4-1.42 18.28 18.28 0 0 0 10.87-10.67 15.3 15.3 0 0 0-2.88-15.56A19.65 19.65 0 0 0 69.22 3.3a15.52 15.52 0 0 0-10.89 8.77 19.22 19.22 0 0 0 .14 16.66A14.31 14.31 0 0 0 64.59 35zm-2.66-21.2A11.6 11.6 0 0 1 70 7.21a15.92 15.92 0 0 1 14.79 4.64 11.25 11.25 0 0 1 2.11 11.59 14.3 14.3 0 0 1-8.54 8.31 14.54 14.54 0 0 1-11.93-.25A10.39 10.39 0 0 1 62 26.92a15.15 15.15 0 0 1-.07-13.12zM95.71 76.71a11.93 11.93 0 0 0 4.57.86c4 0 8.29-1.78 10-5.32 1.26-2.64.51-5.32-.16-7.68a11 11 0 0 1-.66-4.33 10.13 10.13 0 0 1 1-2.69c.29-.59.58-1.2.83-1.86a11.21 11.21 0 0 0-.35-9.08c-2.19-4.16-7.63-6.41-12.66-5.22-6.53 1.54-11.19 8-11.88 16.42-.61 7.19 2.04 15.86 9.31 18.9zm-5.34-18.56c.42-5.07 3-11.48 8.82-12.86 3.25-.77 6.85.63 8.2 3.19a7.17 7.17 0 0 1 .16 5.79c-.19.5-.44 1-.7 1.55a13.46 13.46 0 0 0-1.36 3.82 14.27 14.27 0 0 0 .77 6c.54 1.93 1 3.59.39 4.88-1.31 2.76-6.4 3.74-9.39 2.49-5.42-2.25-7.37-9.09-6.89-14.86zM86.75 118.56a2 2 0 0 0-.59 4 9.59 9.59 0 0 0 1.42.1 10.38 10.38 0 0 0 5.2-19.43 18.42 18.42 0 0 0-3.14-1.3A14.14 14.14 0 0 1 87 100.8 5.85 5.85 0 0 1 89.19 90a2 2 0 1 0-.57-4A9.85 9.85 0 0 0 85 104.23a17.36 17.36 0 0 0 3.36 1.43 15.24 15.24 0 0 1 2.48 1 6.38 6.38 0 0 1-4.07 11.88zM108.55 17.8a5.85 5.85 0 0 1 9.67 5.32 14.12 14.12 0 0 1-.85 2.69 18.41 18.41 0 0 0-1 3.24 10.65 10.65 0 0 0 6.45 11.63 9.91 9.91 0 0 0 3.59.66 10.68 10.68 0 0 0 9-4.9 2 2 0 0 0-3.41-2.1 6.38 6.38 0 0 1-11.71-4.54 15.12 15.12 0 0 1 .83-2.55 17.32 17.32 0 0 0 1.07-3.49 10 10 0 0 0-5-10.23 10.13 10.13 0 0 0-11.3 1.28 2 2 0 1 0 2.66 3zM141 166.72a9.18 9.18 0 0 0 7.7 5 6.2 6.2 0 0 0 1.22-.12c3.48-.7 5.63-4.31 4.9-8.23a2 2 0 1 0-3.93.73c.32 1.71-.47 3.32-1.75 3.58s-3.54-.84-4.59-2.85a14.14 14.14 0 0 1-.75-1.87 16.39 16.39 0 0 0-1.08-2.57 8.62 8.62 0 0 0-7.43-4.61 6.12 6.12 0 0 0-5.77 5.82 2 2 0 0 0 1.83 2.16 2 2 0 0 0 2.16-1.83 2.15 2.15 0 0 1 1.95-2.14 4.69 4.69 0 0 1 3.76 2.55 13.09 13.09 0 0 1 .81 2 17.52 17.52 0 0 0 .97 2.38zM109.84 151.57a14.7 14.7 0 0 0-1.29-2.4 10.7 10.7 0 0 1-1-1.85 4.11 4.11 0 0 1 6-4.92 2 2 0 1 0 2.05-3.4 8.11 8.11 0 0 0-11.8 9.71 14.08 14.08 0 0 0 1.36 2.59 11.46 11.46 0 0 1 1 1.76 4.52 4.52 0 0 1-7.56 4.69 2 2 0 1 0-3 2.69 8.65 8.65 0 0 0 6.39 2.74 8.36 8.36 0 0 0 4.42-1.23 8.74 8.74 0 0 0 3.43-10.38zM73.4 125.1a2 2 0 1 0-3.69-1.55 4.21 4.21 0 0 1-8.09-1.72 2 2 0 0 0-4-.08 8.44 8.44 0 0 0 6.5 8.19 7.62 7.62 0 0 0 1.58.17 8.48 8.48 0 0 0 7.7-5.01zM142.13 15.94a7.6 7.6 0 0 0 1.59.17 8.48 8.48 0 0 0 7.69-5 2 2 0 1 0-3.69-1.55 4.21 4.21 0 0 1-8.09-1.72 2 2 0 0 0-4-.08 8.43 8.43 0 0 0 6.5 8.18zM229.77 130a2 2 0 0 0-2.23 3.32 8.1 8.1 0 0 0 4.52 1.34 8.32 8.32 0 0 0 5.88-2.36 8.43 8.43 0 0 0 1-10.42 2 2 0 1 0-3.3 2.26 4.21 4.21 0 0 1-5.83 5.87zM131.21 198.67a8.44 8.44 0 0 0-10.42.91 2 2 0 1 0 2.81 2.85 4.21 4.21 0 0 1 6.81 4.69 2 2 0 1 0 3.66 1.61 8.43 8.43 0 0 0-2.86-10.06zM166.94 121.57a2 2 0 1 0-2.62 3 8.91 8.91 0 0 1-8.74 15.16 2 2 0 0 0-1.31 3.78 12.21 12.21 0 0 0 4 .66 12.87 12.87 0 0 0 8.66-22.63zM7.11 121.51a2 2 0 0 0 2.72-.77 9.27 9.27 0 0 1 10.58-4.11 9.27 9.27 0 0 1 6 9.61 2 2 0 0 0 1.72 2.24h.26a2 2 0 0 0 2-1.74 13.26 13.26 0 0 0-8.74-13.93 13.26 13.26 0 0 0-15.33 6 2 2 0 0 0 .79 2.7zM212.12 116.15c1.47-1.7 3.14-3.62 3.14-6.34 0-5.06-5.57-9.23-10.34-9.45-7.21-.32-12.77 5.77-15.1 11.95-2.72 7.23-1.37 14.38 3.43 18.21a11.19 11.19 0 0 0 6.93 2.42 9.38 9.38 0 0 0 5.66-1.79 10.31 10.31 0 0 0 3.87-7.42v-1.85a9 9 0 0 1 .2-2.53 9.82 9.82 0 0 1 2.21-3.2zm-3-2.62a13 13 0 0 0-3 4.68 12.3 12.3 0 0 0-.37 3.7v1.52a6.27 6.27 0 0 1-2.29 4.53c-2 1.52-5.39 1.27-7.68-.56-4.16-3.32-3.77-9.45-2.18-13.68 1.77-4.71 5.78-9.37 10.8-9.37h.37c2.84.13 6.51 2.8 6.52 5.46-.03 1.19-1.04 2.38-2.19 3.72zM110.44 213.21a2 2 0 1 0-2.72 2.93l12 11.12a2 2 0 0 0 2.72-2.93zM153.78 91.36a2 2 0 0 0-2.59-1.13l-11 4.3a2 2 0 1 0 1.46 3.73l11-4.3a2 2 0 0 0 1.13-2.6zM30.62 142.72a2 2 0 0 0 2.59 1.13l11-4.3a2 2 0 1 0-1.46-3.72l-11 4.3a2 2 0 0 0-1.13 2.59zM118.72 95.29l9.08-18.78a2 2 0 0 0-3.6-1.74l-9.08 18.78a2 2 0 1 0 3.6 1.74zM126.77 176.76l-11 4.3a2 2 0 1 0 1.46 3.72l11-4.3a2 2 0 1 0-1.46-3.72zM80.56 153.19a2 2 0 0 0 2.83-2.83L73 139.94a2 2 0 0 0-2.83 2.83zM142.24 64.74a6.07 6.07 0 0 0 2.18.41 6 6 0 0 0 1.45-.18 7.33 7.33 0 0 0 4.61-3.89 7.22 7.22 0 0 0 .32-6 6.23 6.23 0 0 0-5.13-3.9 7.68 7.68 0 0 0-7 3.15 6.39 6.39 0 0 0-.91 5.61 7.45 7.45 0 0 0 4.48 4.8zm-.24-8.07a3.68 3.68 0 0 1 3.26-1.53 2.24 2.24 0 0 1 1.9 1.48 3.23 3.23 0 0 1-.21 2.68 3.35 3.35 0 0 1-2 1.8 2 2 0 0 1-1.22-.08 3.47 3.47 0 0 1-2-2.21 2.38 2.38 0 0 1 .27-2.14zM37.43 98.55a7.78 7.78 0 0 0-1.1 6.84 9.17 9.17 0 0 0 5.46 5.93 7.38 7.38 0 0 0 2.65.5 7.18 7.18 0 0 0 1.75-.22 9 9 0 0 0 5.66-4.79 8.88 8.88 0 0 0 .4-7.4A7.59 7.59 0 0 0 46 94.66a9.47 9.47 0 0 0-8.57 3.89zm3.24 2.35A5.57 5.57 0 0 1 45 98.6h.51a3.59 3.59 0 0 1 3 2.33 4.9 4.9 0 0 1-.29 4.06 5 5 0 0 1-3.05 2.7 3.23 3.23 0 0 1-2-.14 5.22 5.22 0 0 1-3.06-3.33 3.81 3.81 0 0 1 .56-3.32zM143.54 125.34a12.27 12.27 0 0 0-2.31-12.48 15.66 15.66 0 0 0-14.83-4.72 12.44 12.44 0 0 0-8.74 7 15.12 15.12 0 0 0 .12 13.28 11.49 11.49 0 0 0 4.93 5.07A13.39 13.39 0 0 0 129 135a16.27 16.27 0 0 0 5.89-1.12 14.59 14.59 0 0 0 8.65-8.54zm-19 4.66a7.57 7.57 0 0 1-3.24-3.34 11.25 11.25 0 0 1-.08-9.75 8.52 8.52 0 0 1 6-4.84 11.84 11.84 0 0 1 11 3.44 8.27 8.27 0 0 1 1.54 8.51 10.61 10.61 0 0 1-6.34 6.15 10.79 10.79 0 0 1-8.84-.17z" fill="#dff5b2"/></svg>