<?xml version="1.0" encoding="utf-8"?>
<!-- Generator: Adobe Illustrator 16.0.0, SVG Export Plug-In . SVG Version: 6.00 Build 0)  -->
<!DOCTYPE svg PUBLIC "-//W3C//DTD SVG 1.1//EN" "http://www.w3.org/Graphics/SVG/1.1/DTD/svg11.dtd">
<svg version="1.1" id="Layer_1" xmlns="http://www.w3.org/2000/svg" xmlns:xlink="http://www.w3.org/1999/xlink" x="0px" y="0px"
	 width="612px" height="792px" viewBox="0 0 612 792" enable-background="new 0 0 612 792" xml:space="preserve">
<g>
	<path fill="#FFFFFF" d="M16.786,325.592c-23.176,12.159-22.215,29.967,2.083,39.583l71.993,28.484
		c24.318,9.656,61.116,4.387,81.729-11.698l312.63-246.547c20.554-16.165,22.756-13.782,4.908,5.329L242.981,405.277
		c-17.908,19.05-12.62,42.445,11.779,51.881l8.433,3.285c24.398,9.435,64.162,25.279,88.399,35.136l79.846,32.511
		c24.259,9.855,50.179-1.763,57.068-27.003L610.197,53.786c6.871-25.24-6.472-35.957-29.646-23.817L16.786,325.592z"/>
	<path fill="#FFFFFF" d="M214.356,618.432c-1.422,4.268,49.237-73.354,49.237-73.354c14.323-21.874,6.19-47.977-18.008-57.871
		l-55.247-22.615c-24.198-9.896-35.796,1.724-25.78,25.9C164.558,490.49,215.818,614.045,214.356,618.432z"/>
</g>
</svg>
